<svg xmlns="http://www.w3.org/2000/svg" version="1.1" xmlns:xlink="http://www.w3.org/1999/xlink" xmlns:svgjs="http://svgjs.dev/svgjs" width="1000" height="1635" viewBox="0 0 1000 1635"><g transform="matrix(1,0,0,1,-0.6450786711009187,0.500030517578125)"><svg viewBox="0 0 200 327" data-background-color="#000000" preserveAspectRatio="xMidYMid meet" height="1635" width="1000" xmlns="http://www.w3.org/2000/svg" xmlns:xlink="http://www.w3.org/1999/xlink"><g id="tight-bounds" transform="matrix(1,0,0,1,0.12901573422018942,-0.100006103515625)"><svg viewBox="0 0 199.7419642704528 327.2" height="327.2" width="199.7419642704528"><g><svg viewBox="0 0 243.76089367088602 399.30800070194533" height="327.2" width="199.7419642704528"><g><svg viewBox="0 0 243.76089367088602 399.30800070194533" height="399.30800070194533" width="243.76089367088602"><g id="textblocktransform"><svg viewBox="0 0 243.76089367088602 399.30800070194533" height="399.30800070194533" width="243.76089367088602" id="textblock"><g><svg viewBox="0 0 243.76089367088602 325.56399999999996" height="325.56399999999996" width="243.76089367088602"><g transform="matrix(1,0,0,1,0,0)"><svg width="243.76089367088602" viewBox="-0.15000000596046448 -37.84000015258789 28.889999389648438 38.56999969482422" height="325.56399999999996" data-palette-color="#ffffff"><path d="M24.1-16.02L24.1-8.84Q24.63-7.35 25.88-6.86L25.88-6.86Q24.9-6.54 24.05-5.71 23.19-4.88 23.12-4.64L23.12-4.64Q22.34-2.22 18.87-0.68L18.87-0.68Q15.67 0.73 12.89 0.73 10.11 0.73 8.19 0.04 6.27-0.66 4.81-1.9L4.81-1.9Q1.59-4.61 1.59-8.54L1.59-8.54Q1.59-11.13-0.15-12.28L-0.15-12.28Q0.59-13.48 1.9-13.48L1.9-13.48Q2.64-13.48 3.32-13.06L3.32-13.06Q4.47-14.53 7.67-14.53L7.67-14.53Q8.2-14.53 8.42-14.26L8.42-14.26Q8.11-13.89 8.29-13.2 8.47-12.5 8.47-12.33L8.47-12.33 8.47-12.04Q8.47-11.91 8.52-11.79L8.52-11.79Q8.76-11.84 9.03-11.84 9.3-11.84 9.7-11.69 10.11-11.55 10.42-11.28L10.42-11.28Q11.16-10.67 11.16-9.84L11.16-9.84Q11.16-9.62 11.08-9.45L11.08-9.45Q10.64-9.62 10.13-9.62 9.62-9.62 9.11-9.45 8.59-9.28 8.15-8.89L8.15-8.89Q7.18-8.03 7.18-6.4L7.18-6.4Q7.18-4.81 8.4-3.66L8.4-3.66Q9.64-2.54 11.61-2.54 13.57-2.54 15.11-3.69L15.11-3.69 15.11-16.02Q15.11-17.14 14.65-17.68L14.65-17.68Q13.92-18.58 12.13-19.46L12.13-19.46Q13.79-20.21 14.28-20.8L14.28-20.8Q15.11-21.75 15.11-22.95L15.11-22.95 15.11-33.25Q14.28-35.13 12.11-35.13L12.11-35.13Q11.28-35.13 10.74-34.72L10.74-34.72Q10.47-35.08 10.47-35.56 10.47-36.04 10.75-36.45 11.04-36.87 11.52-37.16L11.52-37.16Q12.65-37.84 14.1-37.84 15.55-37.84 16.77-37.04L16.77-37.04Q18.04-37.84 19.6-37.84 21.17-37.84 22.44-37.04L22.44-37.04Q23.66-37.84 24.73-37.84 25.81-37.84 26.49-37.66 27.17-37.48 27.69-37.16L27.69-37.16Q28.74-36.52 28.74-35.57L28.74-35.57Q28.74-35.08 28.47-34.72L28.47-34.72Q27.93-35.13 27.1-35.13L27.1-35.13Q24.93-35.13 24.1-33.25L24.1-33.25 24.1-22.95Q24.1-21.75 24.61-21.17L24.61-21.17Q25.42-20.21 27.08-19.46L27.08-19.46Q25.29-18.58 24.8-18.02L24.8-18.02Q24.1-17.14 24.1-16.02L24.1-16.02ZM17.46-9.64L17.46-6.47Q18.68-6.93 18.8-9.67L18.8-9.67Q18.95-12.4 18.95-17.24 18.95-22.07 18.93-23.67 18.92-25.27 18.9-26.25L18.9-26.25Q18.82-29.13 18.35-29.72 17.87-30.32 17.46-30.52L17.46-30.52Q17.46-22.02 17.16-20.85L17.16-20.85Q16.82-19.87 15.5-19.46L15.5-19.46Q16.97-18.95 17.16-18.21L17.16-18.21Q17.46-17.04 17.46-9.64L17.46-9.64Z" opacity="1" transform="matrix(1,0,0,1,0,0)" fill="#ffffff" class="wordmark-text-0" data-fill-palette-color="primary" id="text-0"></path></svg></g></svg></g><g transform="matrix(1,0,0,1,72.92107134164556,358.12039999999996)"><svg viewBox="0 0 97.9187509875949 41.18760070194537" height="41.18760070194537" width="97.9187509875949"><g transform="matrix(1,0,0,1,0,0)"><svg width="97.9187509875949" viewBox="0.9500000476837158 -36 87.25 36.70000076293945" height="41.18760070194537" data-palette-color="url(#376c80e9-13df-44eb-b144-bd37b481afc1)"></svg></g></svg></g></svg></g></svg></g><g></g></svg></g><defs></defs><mask id="7387217e-97fe-4df5-8209-2a1de2ee8e15"><g id="SvgjsG1019"><svg viewBox="0 0 199.7419642704528 327.2" height="327.2" width="199.7419642704528"><g><svg viewBox="0 0 243.76089367088602 399.30800070194533" height="327.2" width="199.7419642704528"><g><svg viewBox="0 0 243.76089367088602 399.30800070194533" height="399.30800070194533" width="243.76089367088602"><g id="SvgjsG1018"><svg viewBox="0 0 243.76089367088602 399.30800070194533" height="399.30800070194533" width="243.76089367088602" id="SvgjsSvg1017"><g><svg viewBox="0 0 243.76089367088602 325.56399999999996" height="325.56399999999996" width="243.76089367088602"><g transform="matrix(1,0,0,1,0,0)"><svg width="243.76089367088602" viewBox="-0.15000000596046448 -37.84000015258789 28.889999389648438 38.56999969482422" height="325.56399999999996" data-palette-color="#ffffff"></svg></g></svg></g><g transform="matrix(1,0,0,1,72.92107134164556,358.12039999999996)"><svg viewBox="0 0 97.9187509875949 41.18760070194537" height="41.18760070194537" width="97.9187509875949"><g transform="matrix(1,0,0,1,0,0)"><svg width="97.9187509875949" viewBox="0.9500000476837158 -36 87.25 36.70000076293945" height="41.18760070194537" data-palette-color="url(#376c80e9-13df-44eb-b144-bd37b481afc1)"><path d="M7.3-36L21.3-36Q27.85-36 30.65-32.7L30.65-32.7Q32.7-30.2 32.7-26.45L32.7-26.45Q32.7-25.1 32.45-23.6L32.45-23.6 30.5-12.45Q29.5-6.8 25.6-3.4 21.7 0 15.5 0L15.5 0 0.95 0 7.3-36ZM18.15-28.2L18.15-28.2 14.9-28.2 11.35-7.8 16.1-7.8Q18.45-7.8 19.78-9.08 21.1-10.35 21.6-13.25L21.6-13.25 23.05-21.45Q23.25-22.55 23.25-23.45L23.25-23.45Q23.25-28.2 18.15-28.2ZM44.65 0.7L44.65 0.7Q34.25 0.7 34.25-6.5L34.25-6.5Q34.25-7.5 34.45-8.65L34.45-8.65 35.5-14.85Q36.35-19.65 39.92-22.23 43.5-24.8 49.4-24.8L49.4-24.8Q59.45-24.8 59.45-17.2L59.45-17.2Q59.45-16.1 59.25-14.8L59.25-14.8 58.65-11.25 43.4-11.25 43.2-10.1Q43.1-9.5 43.1-9L43.1-9Q43.1-6.25 46.35-6.25L46.35-6.25Q47.55-6.25 48.4-7 49.25-7.75 49.4-8.75L49.4-8.75 57.7-8.65Q56.05 0.7 44.65 0.7ZM43.9-14.3L50.65-14.3Q50.85-15.15 50.85-15.88 50.85-16.6 50.2-17.35 49.55-18.1 48.12-18.1 46.7-18.1 45.52-17.15 44.35-16.2 43.9-14.3L43.9-14.3ZM79-24.05L87.5-24.05Q88.2-21.95 88.2-18.48 88.2-15 87.35-11.8 86.5-8.6 84.77-5.73 83.05-2.85 79.97-1.07 76.9 0.7 72.9 0.7L72.9 0.7Q66.65 0.7 64.25-1.85L64.25-1.85Q62.65-3.55 62.65-7.05L62.65-7.05Q62.65-8.7 63.05-10.8L63.05-10.8 65.4-24.05 73.9-24.05 71.55-10.75Q71.4-10 71.4-9.4L71.4-9.4Q71.4-6.55 74.35-6.55L74.35-6.55Q79.55-6.55 79.55-17.45L79.55-17.45Q79.55-20 79.15-23.1L79.15-23.1 79-24.05Z" opacity="1" transform="matrix(1,0,0,1,0,0)" fill="white" class="slogan-text-1" id="SvgjsPath1015"></path></svg></g></svg></g></svg></g></svg></g><g></g></svg></g><defs><mask></mask></defs></svg></g></mask><linearGradient x1="0" x2="1" y1="0.5" y2="0.5" id="376c80e9-13df-44eb-b144-bd37b481afc1"><stop stop-color="#f00b51" offset="0"></stop><stop stop-color="#730062" offset="1"></stop></linearGradient><rect width="199.74195861816406" height="327.20001220703125" fill="url(#376c80e9-13df-44eb-b144-bd37b481afc1)" mask="url(#7387217e-97fe-4df5-8209-2a1de2ee8e15)" data-fill-palette-color="secondary"></rect></svg><rect width="199.7419642704528" height="327.2" fill="none" stroke="none" visibility="hidden"></rect></g></svg></g></svg>